<?xml version="1.0" encoding="UTF-8" standalone="no"?>
<!-- Created with Inkscape (http://www.inkscape.org/) -->

<svg
   xmlns:dc="http://purl.org/dc/elements/1.1/"
   xmlns:cc="http://creativecommons.org/ns#"
   xmlns:rdf="http://www.w3.org/1999/02/22-rdf-syntax-ns#"
   xmlns:svg="http://www.w3.org/2000/svg"
   xmlns="http://www.w3.org/2000/svg"
   xmlns:sodipodi="http://sodipodi.sourceforge.net/DTD/sodipodi-0.dtd"
   xmlns:inkscape="http://www.inkscape.org/namespaces/inkscape"
   width="181.34134mm"
   height="39.209183mm"
   viewBox="0 0 181.34134 39.209183"
   version="1.1"
   id="svg1141"
   inkscape:version="0.92.3 (2405546, 2018-03-11)"
   sodipodi:docname="Address-Dispenser-Long-Text.svg">
  <defs
     id="defs1135" />
  <sodipodi:namedview
     id="base"
     pagecolor="#ffffff"
     bordercolor="#666666"
     borderopacity="1.0"
     inkscape:pageopacity="0.0"
     inkscape:pageshadow="2"
     inkscape:zoom="0.49497475"
     inkscape:cx="606.63797"
     inkscape:cy="228.60381"
     inkscape:document-units="mm"
     inkscape:current-layer="g1100"
     showgrid="false"
     fit-margin-top="0"
     fit-margin-left="0"
     fit-margin-right="0"
     fit-margin-bottom="0"
     inkscape:window-width="1920"
     inkscape:window-height="986"
     inkscape:window-x="-11"
     inkscape:window-y="-11"
     inkscape:window-maximized="1" />
  <metadata
     id="metadata1138">
    <rdf:RDF>
      <cc:Work
         rdf:about="">
        <dc:format>image/svg+xml</dc:format>
        <dc:type
           rdf:resource="http://purl.org/dc/dcmitype/StillImage" />
        <dc:title></dc:title>
      </cc:Work>
    </rdf:RDF>
  </metadata>
  <g
     inkscape:label="Layer 1"
     inkscape:groupmode="layer"
     id="layer1"
     transform="translate(399.25571,141.81515)">
    <g
       transform="matrix(0.10829149,0,0,0.10829149,612.73899,-230.07209)"
       id="g1113">
      <g
         id="g839">
        <path
           style="color:#000000;font-style:normal;font-variant:normal;font-weight:normal;font-stretch:normal;font-size:medium;line-height:normal;font-family:sans-serif;font-variant-ligatures:normal;font-variant-position:normal;font-variant-caps:normal;font-variant-numeric:normal;font-variant-alternates:normal;font-feature-settings:normal;text-indent:0;text-align:start;text-decoration:none;text-decoration-line:none;text-decoration-style:solid;text-decoration-color:#000000;letter-spacing:normal;word-spacing:normal;text-transform:none;writing-mode:lr-tb;direction:ltr;text-orientation:mixed;dominant-baseline:auto;baseline-shift:baseline;text-anchor:start;white-space:normal;shape-padding:0;clip-rule:nonzero;display:inline;overflow:visible;visibility:visible;opacity:1;isolation:auto;mix-blend-mode:normal;color-interpolation:sRGB;color-interpolation-filters:linearRGB;solid-color:#000000;solid-opacity:1;vector-effect:none;fill:#287eff;fill-opacity:1;fill-rule:evenodd;stroke:none;stroke-width:14.5;stroke-linecap:butt;stroke-linejoin:miter;stroke-miterlimit:4;stroke-dasharray:none;stroke-dashoffset:0;stroke-opacity:1;paint-order:fill markers stroke;color-rendering:auto;image-rendering:auto;shape-rendering:auto;text-rendering:auto;enable-background:accumulate"
           d="m -9258.2063,1177.065 v -7.2496 -108.6462 h 25.2288 l -6e-4,90.1327 h 205.1911 V 935.87871 h -128.8985 l -2e-4,-25.7631 h 154.1267 V 1177.065 Z"
           id="path1080"
           inkscape:connector-curvature="0"
           sodipodi:nodetypes="cccccccccccc" />
        <path
           inkscape:connector-curvature="0"
           id="path1082"
           d="m -9307.3297,822.41011 c -38.8205,19.3546 -57.2401,73.4761 -8.1193,112.9042 l 103.8629,79.13419 -0.6894,-130.57279 c -1.9254,-62.958 -56.2335,-80.8201 -95.0542,-61.4656 z m 16.5681,33.2315 a 27.888165,27.888165 0 0 1 37.4018,12.5153 27.888165,27.888165 0 0 1 -12.515,37.4015 27.888165,27.888165 0 0 1 -37.4014,-12.515 27.888165,27.888165 0 0 1 12.5146,-37.4018 z"
           style="opacity:1;fill:#ff5555;fill-opacity:1;fill-rule:evenodd;stroke:none;stroke-width:1.60530341;stroke-linecap:butt;stroke-linejoin:round;stroke-miterlimit:4;stroke-dasharray:none;stroke-dashoffset:0;stroke-opacity:0.97142855;paint-order:fill markers stroke" />
      </g>
      <g
         id="g1100"
         transform="matrix(0.71503516,0,0,0.71503516,-2591.5883,409.82412)">
        <g
           aria-label="Address"
           transform="matrix(9.7885478,0,0,9.7885478,249869.23,-24869.225)"
           style="font-style:normal;font-variant:normal;font-weight:bold;font-stretch:normal;font-size:21.33333397px;line-height:1;font-family:Alata;-inkscape-font-specification:'Alata Bold';font-variant-ligatures:normal;font-variant-caps:normal;font-variant-numeric:normal;font-feature-settings:normal;text-align:start;letter-spacing:0px;word-spacing:0px;writing-mode:lr-tb;text-anchor:start;opacity:1;vector-effect:none;fill:#000000;fill-opacity:1;stroke:none;stroke-width:1;stroke-linecap:butt;stroke-linejoin:miter;stroke-miterlimit:4;stroke-dasharray:none;stroke-dashoffset:0;stroke-opacity:1"
           id="flowRoot1090">
          <path
             d="m -26426.882,2620.9656 7.552,15.7013 h -2.752 l -1.344,-3.072 h -7.19 l -1.344,3.072 h -2.666 l 7.509,-15.7013 z m -1.067,6.6773 -1.707,3.7974 h 5.291 l -1.685,-3.776 -0.918,-2.1547 h -0.04 z"
             style="font-style:normal;font-variant:normal;font-weight:bold;font-stretch:normal;font-family:Alata;-inkscape-font-specification:'Alata Bold'"
             id="path824"
             inkscape:connector-curvature="0" />
          <path
             d="m -26414.023,2636.8803 q -1.323,0 -2.453,-0.6187 -1.11,-0.64 -1.792,-1.792 -0.662,-1.1733 -0.662,-2.7307 0,-2.3253 1.302,-3.712 1.301,-1.408 3.52,-1.408 1.237,0 2.261,0.6187 1.024,0.5973 1.387,1.4507 l -0.107,-1.664 v -6.0374 h 2.261 v 15.68 h -2.197 l -0.04,-1.728 q -0.362,0.768 -1.322,1.3654 -0.96,0.576 -2.155,0.576 z m 0.384,-1.9414 q 1.216,0 2.048,-0.832 0.832,-0.8533 0.832,-2.2186 v -0.1494 q 0,-0.9173 -0.384,-1.6426 -0.384,-0.7254 -1.045,-1.1307 -0.662,-0.4053 -1.451,-0.4053 -1.365,0 -2.112,0.896 -0.747,0.8746 -0.747,2.2826 0,1.4294 0.726,2.3254 0.746,0.8746 2.133,0.8746 z"
             style="font-style:normal;font-variant:normal;font-weight:bold;font-stretch:normal;font-family:Alata;-inkscape-font-specification:'Alata Bold'"
             id="path826"
             inkscape:connector-curvature="0" />
          <path
             d="m -26400.94,2636.8803 q -1.322,0 -2.453,-0.6187 -1.109,-0.64 -1.792,-1.792 -0.661,-1.1733 -0.661,-2.7307 0,-2.3253 1.301,-3.712 1.301,-1.408 3.52,-1.408 1.237,0 2.261,0.6187 1.024,0.5973 1.387,1.4507 l -0.107,-1.664 v -6.0374 h 2.262 v 15.68 h -2.198 l -0.04,-1.728 q -0.363,0.768 -1.323,1.3654 -0.96,0.576 -2.155,0.576 z m 0.384,-1.9414 q 1.216,0 2.048,-0.832 0.832,-0.8533 0.832,-2.2186 v -0.1494 q 0,-0.9173 -0.384,-1.6426 -0.384,-0.7254 -1.045,-1.1307 -0.661,-0.4053 -1.451,-0.4053 -1.365,0 -2.112,0.896 -0.746,0.8746 -0.746,2.2826 0,1.4294 0.725,2.3254 0.747,0.8746 2.133,0.8746 z"
             style="font-style:normal;font-variant:normal;font-weight:bold;font-stretch:normal;font-family:Alata;-inkscape-font-specification:'Alata Bold'"
             id="path828"
             inkscape:connector-curvature="0" />
          <path
             d="m -26392.251,2626.8749 h 2.304 v 1.92 q 0.341,-0.9813 1.109,-1.5786 0.768,-0.5974 1.75,-0.5974 0.682,0 0.938,0.128 l -0.32,2.3254 q -0.192,-0.128 -0.832,-0.128 -1.002,0 -1.834,0.64 -0.811,0.64 -0.811,2.048 v 5.0346 h -2.304 z"
             style="font-style:normal;font-variant:normal;font-weight:bold;font-stretch:normal;font-family:Alata;-inkscape-font-specification:'Alata Bold'"
             id="path830"
             inkscape:connector-curvature="0" />
          <path
             d="m -26379.891,2636.8803 q -1.749,0 -2.923,-0.6827 -1.173,-0.704 -1.728,-1.856 -0.554,-1.1733 -0.554,-2.56 0,-1.5573 0.64,-2.7307 0.661,-1.1733 1.813,-1.792 1.152,-0.64 2.603,-0.64 2.261,0 3.349,1.2587 1.109,1.2373 1.109,3.4987 0,0.576 -0.06,1.1946 h -7.04 q 0.235,1.3014 0.918,1.8774 0.704,0.576 1.941,0.576 1.024,0 1.685,-0.1707 0.662,-0.1707 1.216,-0.4693 l 0.704,1.6426 q -0.533,0.3414 -1.45,0.5974 -0.918,0.256 -2.219,0.256 z m 2.069,-5.9094 q 0.02,-1.3226 -0.576,-1.856 -0.597,-0.5546 -1.706,-0.5546 -2.24,0 -2.582,2.4106 z"
             style="font-style:normal;font-variant:normal;font-weight:bold;font-stretch:normal;font-family:Alata;-inkscape-font-specification:'Alata Bold'"
             id="path832"
             inkscape:connector-curvature="0" />
          <path
             d="m -26369.816,2636.8803 q -1.024,0 -2.134,-0.256 -1.088,-0.2774 -1.557,-0.64 l 0.768,-1.8134 q 1.28,0.896 2.923,0.896 1.642,0 1.642,-0.96 0,-0.4266 -0.341,-0.6613 -0.341,-0.2347 -1.216,-0.5547 l -0.811,-0.2986 q -1.28,-0.512 -2.026,-1.216 -0.747,-0.7254 -0.747,-1.8987 0,-1.344 1.045,-2.0907 1.067,-0.768 2.838,-0.768 0.874,0 1.706,0.192 0.854,0.192 1.302,0.4907 l -0.832,1.8347 q -0.278,-0.2774 -0.896,-0.4694 -0.598,-0.2133 -1.344,-0.2133 -1.515,0 -1.515,0.9173 0,0.512 0.405,0.7894 0.406,0.256 1.323,0.576 0.08,0.021 0.661,0.2346 1.366,0.5334 2.027,1.216 0.661,0.6827 0.661,1.7494 0,1.4506 -1.109,2.1973 -1.088,0.7467 -2.773,0.7467 z"
             style="font-style:normal;font-variant:normal;font-weight:bold;font-stretch:normal;font-family:Alata;-inkscape-font-specification:'Alata Bold'"
             id="path834"
             inkscape:connector-curvature="0" />
          <path
             d="m -26360.191,2636.8803 q -1.024,0 -2.134,-0.256 -1.088,-0.2774 -1.557,-0.64 l 0.768,-1.8134 q 1.28,0.896 2.923,0.896 1.642,0 1.642,-0.96 0,-0.4266 -0.341,-0.6613 -0.341,-0.2347 -1.216,-0.5547 l -0.811,-0.2986 q -1.28,-0.512 -2.026,-1.216 -0.747,-0.7254 -0.747,-1.8987 0,-1.344 1.045,-2.0907 1.067,-0.768 2.838,-0.768 0.874,0 1.706,0.192 0.854,0.192 1.302,0.4907 l -0.832,1.8347 q -0.278,-0.2774 -0.896,-0.4694 -0.598,-0.2133 -1.344,-0.2133 -1.515,0 -1.515,0.9173 0,0.512 0.405,0.7894 0.406,0.256 1.323,0.576 0.08,0.021 0.661,0.2346 1.366,0.5334 2.027,1.216 0.661,0.6827 0.661,1.7494 0,1.4506 -1.109,2.1973 -1.088,0.7467 -2.773,0.7467 z"
             style="font-style:normal;font-variant:normal;font-weight:bold;font-stretch:normal;font-family:Alata;-inkscape-font-specification:'Alata Bold'"
             id="path836"
             inkscape:connector-curvature="0" />
        </g>
        <g
           aria-label="Dispenser"
           transform="matrix(9.7885478,0,0,9.7885478,250718.96,-24871.427)"
           style="font-style:normal;font-variant:normal;font-weight:bold;font-stretch:normal;font-size:21.33333397px;line-height:1;font-family:Alata;-inkscape-font-specification:'Alata Bold';font-variant-ligatures:normal;font-variant-caps:normal;font-variant-numeric:normal;font-feature-settings:normal;text-align:start;letter-spacing:0px;word-spacing:0px;writing-mode:lr-tb;text-anchor:start;opacity:1;vector-effect:none;fill:#000000;fill-opacity:1;stroke:none;stroke-width:1;stroke-linecap:butt;stroke-linejoin:miter;stroke-miterlimit:4;stroke-dasharray:none;stroke-dashoffset:0;stroke-opacity:1"
           id="flowRoot1098">
          <path
             d="m -26432.621,2620.9869 h 3.776 q 4.736,0 6.613,2.24 1.899,2.24 1.899,5.3334 0,2.1546 -0.811,3.9893 -0.81,1.8133 -2.688,2.9653 -1.856,1.152 -4.885,1.152 h -3.904 z m 4.16,13.568 q 2.944,0 4.267,-1.664 1.344,-1.6853 1.344,-4.224 0,-2.4746 -1.344,-4.032 -1.344,-1.5573 -4.267,-1.5573 h -1.771 v 11.4773 z"
             style="font-style:normal;font-variant:normal;font-weight:bold;font-stretch:normal;font-family:Alata;-inkscape-font-specification:'Alata Bold'"
             id="path839"
             inkscape:connector-curvature="0" />
          <path
             d="m -26417.933,2626.8749 h 2.389 v 9.792 h -2.389 z m 1.173,-1.8346 q -0.661,0 -1.109,-0.448 -0.448,-0.448 -0.448,-1.1094 0,-0.5973 0.448,-1.024 0.448,-0.4266 1.109,-0.4266 0.64,0 1.088,0.4266 0.448,0.4267 0.448,1.024 0,0.6614 -0.448,1.1094 -0.426,0.448 -1.088,0.448 z"
             style="font-style:normal;font-variant:normal;font-weight:bold;font-stretch:normal;font-family:Alata;-inkscape-font-specification:'Alata Bold'"
             id="path841"
             inkscape:connector-curvature="0" />
          <path
             d="m -26408.983,2636.8803 q -1.024,0 -2.133,-0.256 -1.088,-0.2774 -1.558,-0.64 l 0.768,-1.8134 q 1.28,0.896 2.923,0.896 1.643,0 1.643,-0.96 0,-0.4266 -0.342,-0.6613 -0.341,-0.2347 -1.216,-0.5547 l -0.81,-0.2986 q -1.28,-0.512 -2.027,-1.216 -0.747,-0.7254 -0.747,-1.8987 0,-1.344 1.046,-2.0907 1.066,-0.768 2.837,-0.768 0.875,0 1.707,0.192 0.853,0.192 1.301,0.4907 l -0.832,1.8347 q -0.277,-0.2774 -0.896,-0.4694 -0.597,-0.2133 -1.344,-0.2133 -1.515,0 -1.515,0.9173 0,0.512 0.406,0.7894 0.405,0.256 1.322,0.576 0.09,0.021 0.662,0.2346 1.365,0.5334 2.026,1.216 0.662,0.6827 0.662,1.7494 0,1.4506 -1.11,2.1973 -1.088,0.7467 -2.773,0.7467 z"
             style="font-style:normal;font-variant:normal;font-weight:bold;font-stretch:normal;font-family:Alata;-inkscape-font-specification:'Alata Bold'"
             id="path843"
             inkscape:connector-curvature="0" />
          <path
             d="m -26402.686,2626.8749 h 2.219 v 1.8134 q 1.173,-2.0694 3.669,-2.0694 2.069,0 3.349,1.3227 1.28,1.3013 1.28,3.776 0,1.536 -0.64,2.7093 -0.618,1.1734 -1.706,1.8134 -1.067,0.64 -2.39,0.64 -1.237,0 -2.154,-0.4267 -0.896,-0.448 -1.408,-1.2587 l 0.02,6.656 h -2.24 z m 5.248,8.064 q 1.387,0 2.133,-0.8746 0.747,-0.896 0.747,-2.2827 0,-1.4507 -0.747,-2.304 -0.725,-0.8747 -2.133,-0.8747 -0.768,0 -1.451,0.384 -0.661,0.3627 -1.066,1.0667 -0.384,0.6827 -0.384,1.6 v 0.1493 q 0,0.9174 0.384,1.6427 0.405,0.704 1.066,1.1093 0.662,0.384 1.451,0.384 z"
             style="font-style:normal;font-variant:normal;font-weight:bold;font-stretch:normal;font-family:Alata;-inkscape-font-specification:'Alata Bold'"
             id="path845"
             inkscape:connector-curvature="0" />
          <path
             d="m -26385.099,2636.8803 q -1.75,0 -2.923,-0.6827 -1.173,-0.704 -1.728,-1.856 -0.555,-1.1733 -0.555,-2.56 0,-1.5573 0.64,-2.7307 0.662,-1.1733 1.814,-1.792 1.152,-0.64 2.602,-0.64 2.262,0 3.35,1.2587 1.109,1.2373 1.109,3.4987 0,0.576 -0.06,1.1946 h -7.04 q 0.235,1.3014 0.917,1.8774 0.704,0.576 1.942,0.576 1.024,0 1.685,-0.1707 0.661,-0.1707 1.216,-0.4693 l 0.704,1.6426 q -0.533,0.3414 -1.451,0.5974 -0.917,0.256 -2.218,0.256 z m 2.069,-5.9094 q 0.02,-1.3226 -0.576,-1.856 -0.597,-0.5546 -1.707,-0.5546 -2.24,0 -2.581,2.4106 z"
             style="font-style:normal;font-variant:normal;font-weight:bold;font-stretch:normal;font-family:Alata;-inkscape-font-specification:'Alata Bold'"
             id="path847"
             inkscape:connector-curvature="0" />
          <path
             d="m -26378.395,2626.8749 h 2.261 l 0.02,1.792 q 0.406,-0.896 1.28,-1.472 0.875,-0.576 2.048,-0.576 1.515,0 2.326,0.64 0.81,0.6187 1.088,1.7494 0.277,1.1306 0.277,2.944 v 4.7146 h -2.304 v -4.6506 q 0,-1.856 -0.363,-2.6667 -0.362,-0.832 -1.493,-0.832 -0.64,0 -1.301,0.4053 -0.662,0.384 -1.11,1.1307 -0.426,0.7467 -0.426,1.7493 v 4.864 h -2.304 z"
             style="font-style:normal;font-variant:normal;font-weight:bold;font-stretch:normal;font-family:Alata;-inkscape-font-specification:'Alata Bold'"
             id="path849"
             inkscape:connector-curvature="0" />
          <path
             d="m -26362.775,2636.8803 q -1.024,0 -2.133,-0.256 -1.088,-0.2774 -1.557,-0.64 l 0.768,-1.8134 q 1.28,0.896 2.922,0.896 1.643,0 1.643,-0.96 0,-0.4266 -0.341,-0.6613 -0.342,-0.2347 -1.216,-0.5547 l -0.811,-0.2986 q -1.28,-0.512 -2.027,-1.216 -0.746,-0.7254 -0.746,-1.8987 0,-1.344 1.045,-2.0907 1.067,-0.768 2.837,-0.768 0.875,0 1.707,0.192 0.853,0.192 1.301,0.4907 l -0.832,1.8347 q -0.277,-0.2774 -0.896,-0.4694 -0.597,-0.2133 -1.344,-0.2133 -1.514,0 -1.514,0.9173 0,0.512 0.405,0.7894 0.405,0.256 1.323,0.576 0.09,0.021 0.661,0.2346 1.365,0.5334 2.027,1.216 0.661,0.6827 0.661,1.7494 0,1.4506 -1.109,2.1973 -1.088,0.7467 -2.774,0.7467 z"
             style="font-style:normal;font-variant:normal;font-weight:bold;font-stretch:normal;font-family:Alata;-inkscape-font-specification:'Alata Bold'"
             id="path851"
             inkscape:connector-curvature="0" />
          <path
             d="m -26351.891,2636.8803 q -1.749,0 -2.923,-0.6827 -1.173,-0.704 -1.728,-1.856 -0.554,-1.1733 -0.554,-2.56 0,-1.5573 0.64,-2.7307 0.661,-1.1733 1.813,-1.792 1.152,-0.64 2.603,-0.64 2.261,0 3.349,1.2587 1.109,1.2373 1.109,3.4987 0,0.576 -0.06,1.1946 h -7.04 q 0.235,1.3014 0.918,1.8774 0.704,0.576 1.941,0.576 1.024,0 1.685,-0.1707 0.662,-0.1707 1.216,-0.4693 l 0.704,1.6426 q -0.533,0.3414 -1.45,0.5974 -0.918,0.256 -2.219,0.256 z m 2.069,-5.9094 q 0.02,-1.3226 -0.576,-1.856 -0.597,-0.5546 -1.706,-0.5546 -2.24,0 -2.582,2.4106 z"
             style="font-style:normal;font-variant:normal;font-weight:bold;font-stretch:normal;font-family:Alata;-inkscape-font-specification:'Alata Bold'"
             id="path853"
             inkscape:connector-curvature="0" />
          <path
             d="m -26345.251,2626.8749 h 2.304 v 1.92 q 0.341,-0.9813 1.109,-1.5786 0.768,-0.5974 1.75,-0.5974 0.682,0 0.938,0.128 l -0.32,2.3254 q -0.192,-0.128 -0.832,-0.128 -1.002,0 -1.834,0.64 -0.811,0.64 -0.811,2.048 v 5.0346 h -2.304 z"
             style="font-style:normal;font-variant:normal;font-weight:bold;font-stretch:normal;font-family:Alata;-inkscape-font-specification:'Alata Bold'"
             id="path855"
             inkscape:connector-curvature="0" />
        </g>
      </g>
    </g>
  </g>
</svg>
